# xmcd
#
# Track frame offsets:
#	150
#	19604
#	36342
#	54744
#	68621
#	86649
#	103242
#	118055
#	134250
#	150393
#	167168
#	182752
#	200434
#	214663
#	232914
#	247215
#	260224
#	275540
#	293369
#	310624
#	320903
#
# Disc length: 4560 seconds
#
# Revision: 2
# Processed by: cddbd v1.5.2PL0 Copyright (c) Steve Scherf et al.
# Submitted via: audiograbber 1.83.01
#
DISCID=3511ce15
DTITLE=Various Artist - CDX 465
DYEAR=2009
DGENRE=Country
TTITLE0=Billy Ray Cyrus - Back to Tennessee
TTITLE1=Craig Morgan - God must really love me
TTITLE2=Chuck Wicks - Man of the house
TTITLE3=Trace Adkins - Marry for money
TTITLE4=Tim McGraw - Nothin' to die for
TTITLE5=Keith Anderson - She should've been mine
TTITLE6=Darryl Worley - Sounds like life to me
TTITLE7=Trailer Choir - What would you say
TTITLE8=Melonie Cannon - Back to earth (with Willie Nelson)
TTITLE9=Cledus T Judd - Waitin' on Obama
TTITLE10=Clay Underwood - Behind these walls
TTITLE11=Darren Kozelsky - Good day to get done
TTITLE12=Jerry Audley - I just want to hold you
TTITLE13=Dayna Lane - I'll keep believing
TTITLE14=Alex Woodard - Reno (with Sara Watkins)
TTITLE15=Christopher Michael Johnson - Rockin' robin
TTITLE16=Vince Hatfield - Santa Barbara
TTITLE17=Chris Filer - So much love (so little time)
TTITLE18=Crystal LaRochelle - Turn around
TTITLE19=David Ford - Narative: What is America
TTITLE20=Billy Dean - Wave on old glory wave on
EXTD=
EXTT0=
EXTT1=
EXTT2=
EXTT3=
EXTT4=
EXTT5=
EXTT6=
EXTT7=
EXTT8=
EXTT9=
EXTT10=
EXTT11=
EXTT12=
EXTT13=
EXTT14=
EXTT15=
EXTT16=
EXTT17=
EXTT18=
EXTT19=
EXTT20=
PLAYORDER=
